<svg id="Layer_1" data-name="Layer 1" xmlns="http://www.w3.org/2000/svg" viewBox="0 0 102.68 101.39"><defs><style>.cls-1,.cls-8{fill:#5bce66;}.cls-2,.cls-3,.cls-5{fill:#ffa92b;}.cls-3{stroke:#ffa92b;}.cls-3,.cls-5,.cls-7,.cls-8{stroke-miterlimit:10;stroke-width:4px;}.cls-4{fill:#005bb6;}.cls-5{stroke:#005bb6;}.cls-6,.cls-7{fill:#f04670;}.cls-7{stroke:#f04670;}.cls-8{stroke:#5bce66;}</style></defs><circle class="cls-1" cx="51.31" cy="91.68" r="5.87"/><circle class="cls-2" cx="39.88" cy="50.53" r="17.23"/><circle class="cls-2" cx="9.35" cy="50.53" r="5.66"/><circle class="cls-2" cx="11.32" cy="85.24" r="11.32"/><circle class="cls-2" cx="11.32" cy="15.82" r="10.34"/><line class="cls-2" x1="41.6" y1="54.96" x2="10.34" y2="87.21"/><line class="cls-2" x1="10.83" y1="14.59" x2="49.23" y2="52.74"/><line class="cls-3" x1="42.58" y1="54.96" x2="11.32" y2="87.21"/><line class="cls-3" x1="11.82" y1="14.59" x2="50.21" y2="52.74"/><circle class="cls-2" cx="49.76" cy="9.35" r="5.66"/><circle class="cls-2" cx="15.06" cy="11.32" r="11.32"/><circle class="cls-2" cx="84.47" cy="11.32" r="10.34"/><circle class="cls-4" cx="49.76" cy="39.88" r="17.23"/><circle class="cls-4" cx="49.76" cy="9.35" r="5.66"/><circle class="cls-4" cx="15.06" cy="11.32" r="11.32"/><circle class="cls-4" cx="84.47" cy="11.32" r="10.34"/><line class="cls-5" x1="45.33" y1="42.58" x2="13.09" y2="11.32"/><line class="cls-5" x1="85.7" y1="11.82" x2="47.55" y2="50.21"/><circle class="cls-6" cx="93.33" cy="48.98" r="5.66"/><circle class="cls-6" cx="91.36" cy="14.27" r="11.32"/><circle class="cls-6" cx="91.36" cy="83.69" r="10.34"/><circle class="cls-6" cx="61.31" cy="48.98" r="17.23"/><circle class="cls-6" cx="91.83" cy="48.98" r="5.66"/><circle class="cls-6" cx="89.86" cy="14.27" r="11.32"/><circle class="cls-6" cx="89.86" cy="83.69" r="10.34"/><line class="cls-7" x1="58.6" y1="44.55" x2="89.86" y2="12.3"/><line class="cls-7" x1="89.37" y1="84.92" x2="50.97" y2="46.76"/><circle class="cls-1" cx="51.31" cy="60.02" r="17.87"/><circle class="cls-1" cx="87.31" cy="89.64" r="11.74"/><circle class="cls-1" cx="15.31" cy="89.64" r="10.72"/><line class="cls-8" x1="55.91" y1="57.22" x2="89.36" y2="89.64"/><line class="cls-8" x1="14.04" y1="89.13" x2="53.61" y2="49.3"/></svg>