<svg id="Layer_1" data-name="Layer 1" xmlns="http://www.w3.org/2000/svg" viewBox="0 0 13.9 13.3"><defs><style>.cls-1{fill:none;stroke:#616a81;stroke-miterlimit:10;}</style></defs><path class="cls-1" d="M7.27.7,9,4.18a.37.37,0,0,0,.27.19l3.84.56a.36.36,0,0,1,.2.61l-2.78,2.7a.38.38,0,0,0-.1.32l.65,3.82a.35.35,0,0,1-.51.38L7.11,11a.38.38,0,0,0-.33,0L3.35,12.76a.36.36,0,0,1-.52-.38l.66-3.82a.38.38,0,0,0-.1-.32L.61,5.54A.36.36,0,0,1,.8,4.93l3.84-.56a.34.34,0,0,0,.27-.19L6.63.7A.35.35,0,0,1,7.27.7Z"/></svg>