<svg id="Layer_1" data-name="Layer 1" xmlns="http://www.w3.org/2000/svg" viewBox="0 0 39.03 37.22"><defs><style>.cls-1{fill:#767f95;}</style></defs><path class="cls-1" d="M20.48.6l5.2,10.53a1,1,0,0,0,.81.59L38.1,13.41a1.07,1.07,0,0,1,.6,1.83l-8.41,8.2a1.07,1.07,0,0,0-.31.95L32,36a1.08,1.08,0,0,1-1.56,1.14L20,31.63a1.1,1.1,0,0,0-1,0L8.62,37.1A1.08,1.08,0,0,1,7.06,36L9,24.39a1,1,0,0,0-.31-.95l-8.4-8.2a1.07,1.07,0,0,1,.59-1.83l11.62-1.69a1.06,1.06,0,0,0,.81-.59L18.55.6A1.08,1.08,0,0,1,20.48.6Z"/></svg>